<svg xmlns="http://www.w3.org/2000/svg" viewBox="0 0 1024 1024">
  <defs>
    <linearGradient id="bg" x1="116" y1="74" x2="908" y2="956" gradientUnits="userSpaceOnUse">
      <stop offset="0" stop-color="#26313C"/>
      <stop offset="0.55" stop-color="#111820"/>
      <stop offset="1" stop-color="#1C2733"/>
    </linearGradient>
    <linearGradient id="leftPanel" x1="132" y1="162" x2="456" y2="858" gradientUnits="userSpaceOnUse">
      <stop offset="0" stop-color="#435569"/>
      <stop offset="1" stop-color="#263544"/>
    </linearGradient>
    <linearGradient id="rightPanel" x1="568" y1="162" x2="900" y2="858" gradientUnits="userSpaceOnUse">
      <stop offset="0" stop-color="#3D5876"/>
      <stop offset="1" stop-color="#24384D"/>
    </linearGradient>
    <linearGradient id="accent" x1="236" y1="664" x2="818" y2="436" gradientUnits="userSpaceOnUse">
      <stop offset="0" stop-color="#26F2FF"/>
      <stop offset="0.58" stop-color="#29C8FF"/>
      <stop offset="1" stop-color="#7B8CFF"/>
    </linearGradient>
    <filter id="shadow" x="-16%" y="-16%" width="132%" height="132%">
      <feDropShadow dx="0" dy="22" stdDeviation="28" flood-color="#020617" flood-opacity="0.38"/>
    </filter>
  </defs>

  <rect x="0" y="0" width="1024" height="1024" rx="214" fill="url(#bg)"/>
  <rect x="26" y="26" width="972" height="972" rx="190" fill="none" stroke="#FFFFFF" stroke-opacity="0.10" stroke-width="18"/>

  <g filter="url(#shadow)">
    <rect x="118" y="162" width="340" height="700" rx="84" fill="url(#leftPanel)" stroke="#45E7FF" stroke-opacity="0.34" stroke-width="20"/>
    <rect x="566" y="162" width="340" height="700" rx="84" fill="url(#rightPanel)" stroke="#7B8CFF" stroke-opacity="0.38" stroke-width="20"/>
    <rect x="492" y="214" width="40" height="596" rx="20" fill="#5DDCFF" fill-opacity="0.32"/>
  </g>

  <path d="M220 644 C340 514 426 784 536 636 C642 494 690 398 814 446" fill="none" stroke="#06101C" stroke-opacity="0.28" stroke-width="94" stroke-linecap="round"/>
  <path d="M220 644 C340 514 426 784 536 636 C642 494 690 398 814 446" fill="none" stroke="url(#accent)" stroke-width="74" stroke-linecap="round"/>
  <circle cx="220" cy="644" r="66" fill="#26F2FF"/>
  <circle cx="536" cy="636" r="66" fill="#4AA3FF"/>
  <circle cx="814" cy="446" r="66" fill="#A78BFA"/>

  <path d="M226 326 H364" stroke="#F0FFFC" stroke-opacity="0.72" stroke-width="34" stroke-linecap="round"/>
  <path d="M660 326 H802" stroke="#F3F7FF" stroke-opacity="0.72" stroke-width="34" stroke-linecap="round"/>
</svg>
