<svg xmlns="http://www.w3.org/2000/svg" viewBox="0 0 24 24">
  <path fill="#f59e0b" d="M6.2 3.4h11.6c.88 0 1.6.72 1.6 1.6v14c0 .88-.72 1.6-1.6 1.6H6.2c-.88 0-1.6-.72-1.6-1.6V5c0-.88.72-1.6 1.6-1.6"/>
  <path fill="#fbbf24" d="M7.2 5h9.6c.44 0 .8.36.8.8v12.4c0 .44-.36.8-.8.8H7.2c-.44 0-.8-.36-.8-.8V5.8c0-.44.36-.8.8-.8"/>
  <path fill="#78350f" d="M10 3.4h2v2h-2zm2 2h2v2h-2zm-2 2h2v2h-2zm2 2h2v2h-2zm-2 2h2v2h-2z" opacity=".8"/>
  <rect x="9.45" y="14.2" width="5.1" height="3.35" rx=".9" fill="#92400e"/>
  <path fill="#fef3c7" d="M10.6 15.3h2.8v1.15h-2.8z"/>
</svg>
