<svg xmlns="http://www.w3.org/2000/svg" viewBox="0 0 24 24">
  <path fill="#6366f1" d="M6 3.2h7.1c.5 0 .98.2 1.33.55l3.82 3.82c.35.35.55.83.55 1.33V18A2.8 2.8 0 0 1 16 20.8H8A2.8 2.8 0 0 1 5.2 18V4c0-.44.36-.8.8-.8"/>
  <path fill="#a5b4fc" d="M13 3.45V7.5c0 .83.67 1.5 1.5 1.5h4.05z"/>
  <path fill="#eef2ff" d="M7.8 12.1h8.4v1.25H7.8zm0 2.6h7.2v1.25H7.8zm0 2.6h4.7v1.25H7.8z" opacity=".9"/>
  <path fill="none" stroke="#0f172a" stroke-opacity=".2" stroke-width=".8" d="M6 3.6h7.1c.4 0 .78.16 1.05.44l3.81 3.81c.28.27.44.65.44 1.05V18c0 1.33-1.07 2.4-2.4 2.4H8A2.4 2.4 0 0 1 5.6 18V4c0-.22.18-.4.4-.4z"/>
</svg>
