<svg xmlns="http://www.w3.org/2000/svg" viewBox="0 0 24 24">
  <path fill="#2563eb" d="M3 7.2C3 5.98 3.98 5 5.2 5h4.28c.48 0 .94.17 1.31.48l1.14.96c.36.3.82.47 1.29.47h5.58c1.22 0 2.2.98 2.2 2.2v.77H3z"/>
  <path fill="#38bdf8" d="M3 9.2h18v6.95A2.85 2.85 0 0 1 18.15 19H5.85A2.85 2.85 0 0 1 3 16.15z"/>
  <path fill="#7dd3fc" d="M4.6 10.35h14.8v5.45c0 .88-.72 1.6-1.6 1.6H6.2c-.88 0-1.6-.72-1.6-1.6z" opacity=".38"/>
  <path fill="none" stroke="#0f172a" stroke-opacity=".22" stroke-width=".8" d="M3.4 9.2h17.2v6.95c0 1.35-1.1 2.45-2.45 2.45H5.85a2.45 2.45 0 0 1-2.45-2.45z"/>
</svg>
