<svg xmlns="http://www.w3.org/2000/svg" viewBox="0 0 24 24">
  <rect x="3.2" y="4" width="17.6" height="16" rx="3.2" fill="#14b8a6"/>
  <path fill="#5eead4" d="M5.2 15.55 8.9 11.8c.56-.57 1.48-.55 2.02.04l2.28 2.5 1.07-1.08a1.45 1.45 0 0 1 2.05 0l2.48 2.48V17a1.8 1.8 0 0 1-1.8 1.8H7a1.8 1.8 0 0 1-1.8-1.8z"/>
  <path fill="#facc15" d="M16.1 10.2a2.05 2.05 0 1 0 0-4.1 2.05 2.05 0 0 0 0 4.1"/>
  <path fill="#ecfeff" d="m5.2 15.55 3.7-3.75c.56-.57 1.48-.55 2.02.04l2.28 2.5 1.07-1.08c.1-.1.21-.18.33-.25l3.74 3.74c-.12 1.15-.7 2.05-1.77 2.05H7A1.8 1.8 0 0 1 5.2 17z" opacity=".34"/>
  <rect x="3.6" y="4.4" width="16.8" height="15.2" rx="2.8" fill="none" stroke="#0f172a" stroke-opacity=".2" stroke-width=".8"/>
</svg>
