<svg xmlns="http://www.w3.org/2000/svg" viewBox="0 0 24 24">
  <path fill="#a855f7" d="M9 7.8c0-1.03.72-1.91 1.72-2.12l6.6-1.36A1.4 1.4 0 0 1 19 5.7v10.15a3.25 3.25 0 1 1-2-3V8.1l-6 1.25v8.5a3.25 3.25 0 1 1-2-3z"/>
  <path fill="#f0abfc" d="M11 9.35 17 8.1v2.05l-6 1.25z"/>
  <circle cx="7.25" cy="18.05" r="2.15" fill="#c084fc"/>
  <circle cx="15.25" cy="16.05" r="2.15" fill="#c084fc"/>
  <path fill="#fff" d="M5.75 17.55a1.7 1.7 0 0 1 2.04-1.25 2.25 2.25 0 0 0-1.96 1.97 1.7 1.7 0 0 1-.08-.72m8-2a1.7 1.7 0 0 1 2.04-1.25 2.25 2.25 0 0 0-1.96 1.97 1.7 1.7 0 0 1-.08-.72" opacity=".35"/>
</svg>
