<svg xmlns="http://www.w3.org/2000/svg" viewBox="0 0 256 256" width="100%" height="100%">
  <defs>
    <!-- Background blur for contact shadow -->
    <filter id="blur-bg" x="-20%" y="-20%" width="140%" height="140%">
      <feGaussianBlur stdDeviation="8" />
    </filter>
    <filter id="shadow-insert" x="-20%" y="-20%" width="140%" height="140%">
      <feDropShadow dx="0" dy="4" stdDeviation="5" flood-color="#000000" flood-opacity="0.12" />
    </filter>
    <filter id="shadow-front" x="-10%" y="-10%" width="120%" height="130%">
      <feDropShadow dx="0" dy="-2" stdDeviation="4" flood-color="#5c3a00" flood-opacity="0.08" />
      <feDropShadow dx="0" dy="5" stdDeviation="6" flood-color="#3e2723" flood-opacity="0.22" />
    </filter>
    <filter id="logo-shadow" x="-20%" y="-20%" width="140%" height="140%">
      <feDropShadow dx="0" dy="3" stdDeviation="4" flood-color="#000000" flood-opacity="0.25" />
    </filter>

    <radialGradient id="dropShadowGrad" cx="50%" cy="50%" r="50%">
      <stop offset="0%" stop-color="#000000" stop-opacity="0.3" />
      <stop offset="80%" stop-color="#000000" stop-opacity="0.05" />
      <stop offset="100%" stop-color="#000000" stop-opacity="0" />
    </radialGradient>
    <linearGradient id="backGradient" x1="0" y1="0" x2="0" y2="1">
      <stop offset="0%" stop-color="#ffe082" />
      <stop offset="100%" stop-color="#e65100" />
    </linearGradient>
    <linearGradient id="frontGradient" x1="0" y1="0" x2="0" y2="1">
      <stop offset="0%" stop-color="#ffe082" />
      <stop offset="40%" stop-color="#ffa000" />
      <stop offset="100%" stop-color="#ff6f00" />
    </linearGradient>
    <linearGradient id="frontBorder" x1="0" y1="0" x2="0" y2="1">
      <stop offset="0%" stop-color="#ffffff" stop-opacity="0.7" />
      <stop offset="30%" stop-color="#ffffff" stop-opacity="0.2" />
      <stop offset="100%" stop-color="#ffab00" stop-opacity="0.1" />
    </linearGradient>
    <linearGradient id="cardGrad" x1="0" y1="0" x2="1" y2="1">
      <stop offset="0%" stop-color="#ffffff" />
      <stop offset="100%" stop-color="#eceff1" />
    </linearGradient>

    <!-- MEGA red gradient -->
    <linearGradient id="megaRedGrad" x1="0" y1="0" x2="0" y2="1">
      <stop offset="0%" stop-color="#ff3b30" />
      <stop offset="100%" stop-color="#d32f2f" />
    </linearGradient>
  </defs>

  <!-- Ambient Shadow -->
  <ellipse cx="128" cy="222" rx="106" ry="12" fill="url(#dropShadowGrad)" filter="url(#blur-bg)" />

  <!-- Back Flap -->
  <path d="M 24 82 
           A 12 12 0 0 1 36 70 
           L 90 70 
           A 12 12 0 0 1 102 78 
           L 112 88 
           A 12 12 0 0 0 120 92 
           L 220 92 
           A 12 12 0 0 1 232 104 
           L 232 208 
           A 12 12 0 0 1 220 220 
           L 36 220 
           A 12 12 0 0 1 24 208 
           Z" 
        fill="url(#backGradient)" />

  <!-- Inserted Document Sheet -->
  <g transform="rotate(-2 128 130)" filter="url(#shadow-insert)">
    <rect x="48" y="75" width="160" height="110" rx="8" fill="url(#cardGrad)" />
    
    <!-- Document content lines -->
    <rect x="64" y="94" width="60" height="6" rx="2.5" fill="#ff8a80" />
    <rect x="64" y="108" width="128" height="4" rx="1.5" fill="#cfd8dc" />
    <rect x="64" y="118" width="128" height="4" rx="1.5" fill="#cfd8dc" />
    <rect x="64" y="128" width="96" height="4" rx="1.5" fill="#cfd8dc" />
    <rect x="64" y="138" width="112" height="4" rx="1.5" fill="#cfd8dc" />
    <rect x="64" y="148" width="72" height="4" rx="1.5" fill="#cfd8dc" />
  </g>

  <!-- Front Flap -->
  <path d="M 24 124 
           A 12 12 0 0 1 36 112 
           L 220 112 
           A 12 12 0 0 1 232 124 
           L 232 208 
           A 12 12 0 0 1 220 220 
           L 36 220 
           A 12 12 0 0 1 24 208 
           Z" 
        fill="url(#frontGradient)" 
        stroke="url(#frontBorder)" 
        stroke-width="1.5"
        filter="url(#shadow-front)" />

  <!-- MEGA Badge on Front Flap -->
  <g transform="translate(85.76, 126.4) scale(0.33)" filter="url(#logo-shadow)">
    <!-- Red circle with white stroke -->
    <circle cx="128" cy="120" r="76" fill="url(#megaRedGrad)" stroke="#ffffff" stroke-width="7" stroke-opacity="0.9" />
    <!-- White M -->
    <path d="M 86,156 L 86,84 L 108,84 L 128,114 L 148,84 L 170,84 L 170,156 L 152,156 L 152,112 L 128,146 L 104,112 L 104,156 Z" fill="#ffffff" />
  </g>
</svg>
